<svg width="40" height="40" viewBox="0 0 40 40" fill="none" xmlns="http://www.w3.org/2000/svg">
<g filter="url(#filter0_d_3537_9259)">
<path d="M2 17C2 9.45753 2 5.68629 4.34315 3.34315C6.68629 1 10.4575 1 18 1H22C29.5425 1 33.3137 1 35.6569 3.34315C38 5.68629 38 9.45753 38 17V21C38 28.5425 38 32.3137 35.6569 34.6569C33.3137 37 29.5425 37 22 37H18C10.4575 37 6.68629 37 4.34315 34.6569C2 32.3137 2 28.5425 2 21V17Z" fill="#F0F1F5"/>
<path d="M25 14L15 24M15 14L25 24" stroke="#190C0C" stroke-width="1.66667" stroke-linecap="round" stroke-linejoin="round"/>
</g>
<defs>
<filter id="filter0_d_3537_9259" x="0" y="0" width="40" height="40" filterUnits="userSpaceOnUse" color-interpolation-filters="sRGB">
<feFlood flood-opacity="0" result="BackgroundImageFix"/>
<feColorMatrix in="SourceAlpha" type="matrix" values="0 0 0 0 0 0 0 0 0 0 0 0 0 0 0 0 0 0 127 0" result="hardAlpha"/>
<feOffset dy="1"/>
<feGaussianBlur stdDeviation="1"/>
<feComposite in2="hardAlpha" operator="out"/>
<feColorMatrix type="matrix" values="0 0 0 0 0.0627451 0 0 0 0 0.0941176 0 0 0 0 0.156863 0 0 0 0.05 0"/>
<feBlend mode="normal" in2="BackgroundImageFix" result="effect1_dropShadow_3537_9259"/>
<feBlend mode="normal" in="SourceGraphic" in2="effect1_dropShadow_3537_9259" result="shape"/>
</filter>
</defs>
</svg>
