<svg width="15" height="15" viewBox="0 0 15 15" fill="none" xmlns="http://www.w3.org/2000/svg">
<path d="M11.2914 3.16621H11.2366C10.9848 1.93201 9.89126 1 8.58325 1H3.70867C2.21542 1 1.00057 2.2147 1.00057 3.70777V10.6694C0.971322 11.57 2.07514 12.1614 2.80904 11.6372L4.41603 10.566C4.78974 11.615 5.78253 12.3726 6.95839 12.3726H10.044L12.1904 13.8034C12.9249 14.3271 14.0282 13.7363 13.9995 12.8357V5.87398C13.9995 4.38092 12.7846 3.16621 11.2914 3.16621ZM2.20784 10.736C2.18076 10.7788 2.06269 10.7149 2.08381 10.6694V3.70777C2.08381 2.81204 2.81283 2.08311 3.70867 2.08311H8.58325C9.47909 2.08311 10.2081 2.81204 10.2081 3.70777V7.49864C10.2081 8.39437 9.47909 9.1233 8.58325 9.1233H4.79191C4.68467 9.12276 4.58447 9.16554 4.49131 9.21428L2.20784 10.736ZM12.9162 12.8357C12.9373 12.8822 12.8171 12.9456 12.7916 12.9023L10.5087 11.3805C10.4199 11.3215 10.3154 11.2895 10.2081 11.2895H6.95839C6.2532 11.2895 5.65742 10.8352 5.43319 10.2064H8.58325C10.0765 10.2064 11.2914 8.9917 11.2914 7.49864V4.24932C12.1872 4.24932 12.9162 4.97825 12.9162 5.87398V12.8357ZM5.17104 7.49864H4.25029C3.95132 7.49864 3.70867 7.25603 3.70867 6.95709V4.24932C3.70867 3.95038 3.95132 3.70777 4.25029 3.70777H5.17104C5.41044 3.70777 5.60434 3.90164 5.60434 4.14101C5.60434 4.38038 5.41044 4.57425 5.17104 4.57425H4.57472V5.1705H5.17104C5.41044 5.1705 5.60434 5.36438 5.60434 5.60375C5.60434 5.84311 5.41044 6.03699 5.17104 6.03699H4.57472V6.63324H5.17104C5.41044 6.63324 5.60434 6.82711 5.60434 7.06648C5.60434 7.30585 5.41044 7.49972 5.17104 7.49972V7.49864ZM6.14596 7.0941V4.20275C6.14596 3.92926 6.36748 3.70777 6.641 3.70777C6.83273 3.70777 7.00659 3.81824 7.08892 3.99154L7.86506 5.63299V4.11231C7.86506 3.88919 8.04596 3.70777 8.26965 3.70777C8.49334 3.70777 8.67424 3.88865 8.67424 4.11231V7.00366C8.67424 7.27715 8.45272 7.49864 8.1792 7.49864C7.98801 7.49864 7.81361 7.38816 7.73182 7.21541L6.95622 5.57721V7.0941C6.95622 7.31722 6.77532 7.49864 6.55163 7.49864C6.32794 7.49864 6.14704 7.31776 6.14704 7.0941H6.14596Z" fill="#6B7280"/>
</svg>
