<svg width="7" height="14" viewBox="0 0 7 14" fill="none" xmlns="http://www.w3.org/2000/svg">
<path d="M2.16596 7.48174C2.07721 7.39154 2.00676 7.28422 1.95869 7.16598C1.91061 7.04774 1.88586 6.92092 1.88586 6.79283C1.88586 6.66474 1.91061 6.53792 1.95869 6.41968C2.00676 6.30144 2.07721 6.19412 2.16596 6.10392L6.51235 1.65997C6.60111 1.56977 6.67155 1.46246 6.71963 1.34422C6.7677 1.22598 6.79245 1.09915 6.79245 0.971063C6.79245 0.842973 6.7677 0.71615 6.71963 0.597911C6.67155 0.479671 6.60111 0.372356 6.51235 0.282154C6.33494 0.101436 6.09493 0 5.84477 0C5.59461 0 5.35461 0.101436 5.17719 0.282154L0.830795 4.73581C0.29881 5.2816 0 6.02144 0 6.79283C0 7.56422 0.29881 8.30406 0.830795 8.84985L5.17719 13.3035C5.35356 13.4828 5.59162 13.5838 5.84004 13.5849C5.96466 13.5856 6.0882 13.5612 6.20357 13.5129C6.31894 13.4646 6.42387 13.3934 6.51235 13.3035C6.60111 13.2133 6.67155 13.106 6.71963 12.9877C6.7677 12.8695 6.79245 12.7427 6.79245 12.6146C6.79245 12.4865 6.7677 12.3597 6.71963 12.2414C6.67155 12.1232 6.60111 12.0159 6.51235 11.9257L2.16596 7.48174Z" fill="white"/>
</svg>
