<svg width="17" height="16" viewBox="0 0 17 16" fill="none" xmlns="http://www.w3.org/2000/svg">
<path d="M7.66775 11.2402V12.5936C7.66775 13.7403 6.60107 14.6669 5.28774 14.6669C3.97441 14.6669 2.90106 13.7403 2.90106 12.5936V11.2402C2.90106 12.3869 3.96774 13.2002 5.28774 13.2002C6.60107 13.2002 7.66775 12.3802 7.66775 11.2402Z" stroke="#606060" stroke-linecap="round" stroke-linejoin="round"/>
<path d="M7.66657 9.40668C7.66657 9.74001 7.57323 10.0467 7.41323 10.3133C7.0199 10.96 6.21322 11.3667 5.27989 11.3667C4.34655 11.3667 3.53988 10.9533 3.14655 10.3133C2.98655 10.0467 2.89325 9.74001 2.89325 9.40668C2.89325 8.83334 3.1599 8.32001 3.58657 7.94668C4.0199 7.56668 4.61321 7.34003 5.27321 7.34003C5.93321 7.34003 6.52657 7.57334 6.9599 7.94668C7.3999 8.31334 7.66657 8.83334 7.66657 9.40668Z" stroke="#606060" stroke-linecap="round" stroke-linejoin="round"/>
<path d="M7.66775 9.40664V11.24C7.66775 12.3866 6.60107 13.2 5.28774 13.2C3.97441 13.2 2.90106 12.38 2.90106 11.24V9.40664C2.90106 8.25997 3.96774 7.33331 5.28774 7.33331C5.94774 7.33331 6.54109 7.56663 6.97443 7.93996C7.40109 8.3133 7.66775 8.8333 7.66775 9.40664Z" stroke="#606060" stroke-linecap="round" stroke-linejoin="round"/>
<path d="M15.1668 7.31327V8.68665C15.1668 9.05331 14.8735 9.35328 14.5001 9.36662H13.1934C12.4734 9.36662 11.8135 8.83995 11.7535 8.11995C11.7135 7.69995 11.8734 7.30662 12.1534 7.03328C12.4001 6.77995 12.7401 6.6333 13.1134 6.6333H14.5001C14.8735 6.64663 15.1668 6.94661 15.1668 7.31327Z" stroke="#606060" stroke-linecap="round" stroke-linejoin="round"/>
<path d="M1.83331 6.99998V5.66665C1.83331 3.85331 2.92665 2.58664 4.62665 2.37331C4.79998 2.34664 4.97998 2.33331 5.16665 2.33331H11.1666C11.34 2.33331 11.5066 2.33997 11.6666 2.36664C13.3866 2.56664 14.5 3.83998 14.5 5.66665V6.63332H13.1133C12.74 6.63332 12.4 6.77997 12.1533 7.0333C11.8733 7.30664 11.7133 7.69997 11.7533 8.11997C11.8133 8.83997 12.4733 9.36664 13.1933 9.36664H14.5V10.3333C14.5 12.3333 13.1666 13.6666 11.1666 13.6666H9.49998" stroke="#606060" stroke-linecap="round" stroke-linejoin="round"/>
</svg>
