<svg width="24" height="28" viewBox="0 0 24 28" fill="none" xmlns="http://www.w3.org/2000/svg">
<path d="M10 7.33301V11.333L11.3333 9.99967" stroke="#606060" stroke-linecap="round" stroke-linejoin="round"/>
<path d="M10.0003 11.3333L8.66699 10" stroke="#606060" stroke-linecap="round" stroke-linejoin="round"/>
<path d="M18.6663 6.66634V9.99967C18.6663 13.333 17.333 14.6663 13.9997 14.6663H9.99967C6.66634 14.6663 5.33301 13.333 5.33301 9.99967V5.99967C5.33301 2.66634 6.66634 1.33301 9.99967 1.33301H13.333" stroke="#606060" stroke-linecap="round" stroke-linejoin="round"/>
<path d="M18.6663 6.66634H15.9997C13.9997 6.66634 13.333 5.99967 13.333 3.99967V1.33301L18.6663 6.66634Z" stroke="#606060" stroke-linecap="round" stroke-linejoin="round"/>
<path d="M2.83 26V18.55H5.46C5.95333 18.55 6.38667 18.6433 6.76 18.83C7.13333 19.0167 7.42333 19.2833 7.63 19.63C7.84333 19.9767 7.95 20.3833 7.95 20.85C7.95 21.3167 7.84333 21.7233 7.63 22.07C7.42333 22.41 7.13333 22.6767 6.76 22.87C6.39333 23.0567 5.96 23.15 5.46 23.15H3.81V26H2.83ZM3.81 22.25H5.49C5.79 22.25 6.05 22.1933 6.27 22.08C6.49 21.9667 6.66 21.8033 6.78 21.59C6.9 21.3767 6.96 21.13 6.96 20.85C6.96 20.5633 6.9 20.3167 6.78 20.11C6.66 19.8967 6.49 19.7333 6.27 19.62C6.05 19.5067 5.79 19.45 5.49 19.45H3.81V22.25ZM9.27531 26V18.55H11.7153C12.4686 18.55 13.1253 18.7033 13.6853 19.01C14.2453 19.3167 14.6786 19.75 14.9853 20.31C15.292 20.8633 15.4453 21.5167 15.4453 22.27C15.4453 23.0167 15.292 23.67 14.9853 24.23C14.6786 24.79 14.2453 25.2267 13.6853 25.54C13.1253 25.8467 12.4686 26 11.7153 26H9.27531ZM10.2553 25.1H11.7253C12.2786 25.1 12.7553 24.9833 13.1553 24.75C13.562 24.5167 13.8753 24.19 14.0953 23.77C14.3153 23.3433 14.4253 22.8433 14.4253 22.27C14.4253 21.69 14.312 21.19 14.0853 20.77C13.8653 20.35 13.552 20.0267 13.1453 19.8C12.7453 19.5667 12.272 19.45 11.7253 19.45H10.2553V25.1ZM16.6874 26V18.55H21.4074V19.45H17.6674V21.86H21.0574V22.76H17.6674V26H16.6874Z" fill="#606060"/>
</svg>
