<svg width="20" height="20" viewBox="0 0 20 20" fill="none" xmlns="http://www.w3.org/2000/svg">
<rect width="20" height="20" rx="10" fill="#F5F6FA"/>
<path d="M12.0795 13.8568L7.91288 13.853C6.39205 13.8517 5.51783 12.9759 5.51918 11.4551L5.52179 8.53841C5.52314 7.01758 6.39893 6.14336 7.91976 6.14472L12.0864 6.14844C13.6073 6.14979 14.4815 7.02557 14.4801 8.54641L14.4775 11.4631C14.4762 12.9839 13.6004 13.8581 12.0795 13.8568ZM7.9192 6.76972C6.72753 6.76865 6.14785 7.3473 6.14679 8.53897L6.14418 11.4556C6.14312 12.6473 6.72177 13.227 7.91344 13.228L12.0801 13.2318C13.2718 13.2328 13.8515 12.6542 13.8525 11.4625L13.8551 8.54585C13.8562 7.35418 13.2775 6.7745 12.0859 6.77343L7.9192 6.76972Z" fill="#606060"/>
<path d="M9.99924 10.3632C9.64924 10.3628 9.29518 10.2542 9.02454 10.0331L7.7213 8.99029C7.58806 8.88184 7.56324 8.68599 7.67169 8.55275C7.78015 8.41951 7.976 8.39469 8.10924 8.50314L9.41247 9.54597C9.72891 9.80042 10.2664 9.8009 10.5833 9.54702L11.8884 8.50651C12.0218 8.3983 12.2218 8.41931 12.3259 8.5569C12.4341 8.69033 12.4131 8.89032 12.2755 8.99436L10.9704 10.0349C10.7035 10.2555 10.3492 10.3635 9.99924 10.3632Z" fill="#606060"/>
</svg>
